<?xml version="1.0" encoding="iso-8859-1"?>
<!-- Generator: Adobe Illustrator 19.0.0, SVG Export Plug-In . SVG Version: 6.00 Build 0)  -->
<svg version="1.1" id="Capa_1" xmlns="http://www.w3.org/2000/svg" xmlns:xlink="http://www.w3.org/1999/xlink" x="0px" y="0px"
	 viewBox="0 0 511.999 511.999" style="enable-background:new 0 0 511.999 511.999;" xml:space="preserve">
<g>
	<path style="fill:#28B898;" d="M390.307,156.346c-0.088,1.034-0.187,2.064-0.298,3.091
		C390.12,158.41,390.22,157.38,390.307,156.346z"/>
	<path style="fill:#28B898;" d="M390.72,149.319c-0.028,0.836-0.06,1.67-0.103,2.502
		C390.659,150.989,390.691,150.155,390.72,149.319z"/>
	<path style="fill:#28B898;" d="M390.802,144.804L390.802,144.804c0,1.167-0.018,2.329-0.048,3.488
		C390.784,147.133,390.802,145.97,390.802,144.804z"/>
	<path style="fill:#28B898;" d="M390.555,152.902c-0.051,0.853-0.109,1.703-0.176,2.551
		C390.445,154.605,390.504,153.755,390.555,152.902z"/>
</g>
<path style="fill:#FFC766;" d="M215.069,489.054c0,7.15,5.796,12.946,12.946,12.946h55.968c7.15,0,12.946-5.796,12.946-12.946
	v-55.377h-81.86V489.054z"/>
<path style="fill:#BC9C83;" d="M310.185,418.535l0.961-17.672H200.852l0.961,17.672c0.453,8.333,7.343,14.858,15.688,14.858h76.996
	C302.841,433.393,309.73,426.868,310.185,418.535z"/>
<g>
	<path style="fill:#28B898;" d="M370.714,181.97c-72.689,34.042-156.742,34.043-229.431,0.003l-16.884-7.907
		c-0.978-4.417-1.734-8.917-2.271-13.484c2.135,18.296,7.919,35.478,16.628,50.785l47.799,101.94h52.594h33.701h53.021
		l51.065-108.906c0.808-1.637,1.586-3.292,2.329-4.966l2.942-7.185c2.622-6.97,4.677-14.217,6.124-21.681
		c-0.227,1.168-0.468,2.332-0.724,3.49L370.714,181.97z"/>
	<path style="fill:#28B898;" d="M351.32,49.483c1.525,1.525,3.013,3.086,4.464,4.682C354.333,52.569,352.844,51.008,351.32,49.483z"
		/>
	<path style="fill:#28B898;" d="M177.963,34.871c1.762-1.253,3.555-2.465,5.378-3.633C181.518,32.406,179.725,33.618,177.963,34.871
		z"/>
	<path style="fill:#28B898;" d="M328.656,31.237c1.823,1.169,3.617,2.38,5.378,3.633C332.272,33.618,330.479,32.406,328.656,31.237z
		"/>
	<path style="fill:#28B898;" d="M121.327,150.511c-0.022-0.52-0.049-1.038-0.065-1.559
		C121.279,149.473,121.307,149.991,121.327,150.511z"/>
	<path style="fill:#28B898;" d="M156.215,54.165c1.451-1.596,2.939-3.157,4.464-4.682C159.154,51.008,157.665,52.569,156.215,54.165
		z"/>
	<path style="fill:#28B898;" d="M121.195,144.804L121.195,144.804L121.195,144.804z"/>
	<path style="fill:#28B898;" d="M320.255,26.27c1.91,1.038,3.792,2.12,5.645,3.246C324.047,28.39,322.164,27.308,320.255,26.27z"/>
	<path style="fill:#28B898;" d="M389.979,159.735c-0.401,3.621-0.946,7.199-1.628,10.728
		C389.031,166.934,389.578,163.357,389.979,159.735z"/>
	<path style="fill:#28B898;" d="M121.973,159.252c-0.083-0.771-0.155-1.546-0.225-2.321
		C121.818,157.706,121.891,158.48,121.973,159.252z"/>
	<path style="fill:#28B898;" d="M121.589,154.995c-0.05-0.662-0.097-1.324-0.138-1.989
		C121.492,153.671,121.54,154.333,121.589,154.995z"/>
	<path style="fill:#28B898;" d="M186.098,29.516c1.853-1.126,3.735-2.208,5.645-3.246C189.833,27.308,187.951,28.39,186.098,29.516z
		"/>
</g>
<path style="fill:#EC6575;" d="M239.148,341.448c0,8.711,7.062,15.773,15.773,15.773h2.154c8.711,0,15.773-7.062,15.773-15.773
	v-28.14h-33.7V341.448z"/>
<path style="fill:#FFC766;" d="M383.72,101.568c-0.707-2.088-1.463-4.153-2.268-6.194s-1.658-4.057-2.558-6.047
	c-5.85-12.939-13.683-24.789-23.111-35.162c-1.451-1.596-2.939-3.157-4.464-4.682c-5.336-5.336-11.118-10.227-17.284-14.613
	c-1.762-1.253-3.555-2.465-5.378-3.633c-0.912-0.584-1.831-1.158-2.757-1.721c-1.853-1.126-3.735-2.208-5.645-3.246
	c-0.955-0.519-1.917-1.026-2.886-1.522c-1.938-0.993-3.902-1.939-5.893-2.839C294.556,14.258,275.775,10,255.999,10
	s-38.557,4.258-55.477,11.908c-1.991,0.9-3.955,1.847-5.893,2.839c-0.969,0.496-1.931,1.004-2.886,1.522
	c-1.91,1.038-3.792,2.12-5.645,3.246c-0.926,0.563-1.846,1.137-2.757,1.721c-1.823,1.169-3.617,2.38-5.378,3.633
	c-6.166,4.385-11.948,9.276-17.284,14.613c-1.525,1.525-3.013,3.086-4.464,4.682c-9.429,10.374-17.262,22.224-23.111,35.162
	c-0.9,1.99-1.753,4.007-2.558,6.047c-0.805,2.041-1.561,4.106-2.268,6.194c-4.593,13.572-7.083,28.113-7.083,43.235l0,0v0.001
	c0,1.388,0.026,2.77,0.068,4.147c0.016,0.521,0.043,1.04,0.065,1.559c0.035,0.833,0.073,1.666,0.123,2.495
	c0.04,0.665,0.088,1.327,0.138,1.989c0.049,0.646,0.102,1.292,0.16,1.936c0.07,0.775,0.142,1.55,0.225,2.321
	c0.048,0.445,0.102,0.888,0.154,1.331c0.537,4.567,1.293,9.067,2.271,13.484l16.884,7.907c72.69,34.04,156.743,34.039,229.431-0.003
	l16.891-7.91c0.257-1.158,0.498-2.321,0.724-3.49c0.007-0.036,0.014-0.072,0.021-0.108c0.682-3.529,1.227-7.107,1.628-10.728
	c0.011-0.099,0.02-0.199,0.031-0.298c0.112-1.027,0.21-2.058,0.298-3.091c0.025-0.297,0.048-0.595,0.071-0.893
	c0.067-0.848,0.125-1.698,0.176-2.551c0.022-0.36,0.043-0.72,0.062-1.082c0.043-0.832,0.076-1.666,0.103-2.502
	c0.011-0.342,0.026-0.684,0.035-1.027c0.03-1.159,0.048-2.322,0.048-3.488l0,0C390.802,129.681,388.313,115.14,383.72,101.568z"/>
<path d="M388.404,203.494c0.04-0.089,0.078-0.179,0.115-0.27l2.942-7.186c0.036-0.089,0.071-0.178,0.105-0.268
	c4.721-12.552,7.642-25.609,8.738-38.954c0.011-0.128,0.02-0.257,0.03-0.385c0.087-1.086,0.16-2.174,0.223-3.262
	c0.016-0.274,0.032-0.548,0.046-0.823c0.051-0.974,0.089-1.948,0.12-2.923c0.01-0.304,0.023-0.608,0.03-0.913
	c0.032-1.236,0.051-2.472,0.051-3.708c0-71.221-51.686-130.595-119.519-142.59c-0.928-0.296-1.88-0.451-2.83-0.47
	C271.134,0.599,263.634,0,255.999,0c-7.636,0-15.134,0.599-22.453,1.743c-0.951,0.019-1.903,0.174-2.832,0.47
	c-67.832,11.995-119.518,71.369-119.518,142.59c0,1.448,0.027,2.897,0.07,4.346c0.014,0.478,0.04,0.956,0.059,1.434
	c0.039,0.973,0.083,1.945,0.141,2.917c0.033,0.557,0.074,1.113,0.114,1.669c0.065,0.908,0.138,1.816,0.22,2.723
	c0.05,0.554,0.103,1.108,0.159,1.662c0.097,0.954,0.207,1.906,0.323,2.858c0.059,0.482,0.115,0.964,0.178,1.446
	c0.159,1.199,0.335,2.396,0.523,3.591c0.035,0.223,0.065,0.446,0.101,0.668c0.442,2.718,0.956,5.424,1.551,8.112
	c0.019,0.085,0.05,0.165,0.07,0.249c3.089,13.809,8.179,27.135,15.16,39.485l46.784,99.776c0.064,0.253,0.129,0.507,0.213,0.758
	l6.603,19.619c6.975,20.724,9.405,42.263,7.222,64.021c-0.125,1.25-0.004,2.466,0.306,3.611l0.834,15.33
	c0.497,9.139,5.732,16.946,13.24,21.103v48.872c0,12.652,10.293,22.946,22.946,22.946h55.969c12.653,0,22.946-10.294,22.946-22.946
	v-48.872c7.508-4.157,12.743-11.964,13.24-21.103L321,403.777c0.316-1.153,0.44-2.379,0.314-3.64
	c-2.183-21.757,0.247-43.297,7.222-64.021l6.037-17.938c0.117-0.208,0.247-0.406,0.35-0.625l51.022-108.815
	C386.807,206.994,387.633,205.23,388.404,203.494z M380.802,144.804c0,7.491-0.673,14.984-2.004,22.339l-12.326,5.772
	c-12.047,5.641-24.403,10.291-36.953,13.996c6.89-39.27,7.986-73.571,3.229-101.954c-3.271-19.514-9.305-36.294-18.025-50.249
	C354.014,55.75,380.802,97.204,380.802,144.804z M197.305,34.691c-3.157,5.043-5.975,10.439-8.418,16.206
	c-2.155,5.086,0.221,10.955,5.307,13.109c1.273,0.539,2.595,0.795,3.896,0.795c3.895,0,7.597-2.29,9.212-6.102
	c6.769-15.978,16.837-28.506,29.929-37.29C243.354,20.483,249.62,20,255.999,20c6.36,0,12.609,0.481,18.716,1.403
	c20.212,13.546,33.104,35.963,38.286,66.723c4.475,26.558,3.31,59.19-3.463,96.991c-0.427,2.385-0.874,4.759-1.334,7.122
	c-34.456,7.08-69.936,7.082-104.391,0.006c-3.148-16.143-5.587-32.845-6.741-49.331c-0.385-5.509-5.17-9.674-10.673-9.277
	c-5.509,0.386-9.663,5.164-9.278,10.674c0.999,14.279,2.882,28.616,5.324,42.593c-12.54-3.704-24.885-8.35-36.922-13.987l0,0
	l-12.298-5.76c-0.116-0.641-0.239-1.281-0.345-1.924c-0.025-0.152-0.053-0.304-0.078-0.457c-0.195-1.202-0.37-2.408-0.53-3.617
	c-0.033-0.249-0.061-0.499-0.093-0.748c-0.122-0.974-0.233-1.949-0.333-2.927c-0.031-0.305-0.064-0.611-0.093-0.917
	c-0.111-1.176-0.209-2.354-0.287-3.533c-0.013-0.204-0.022-0.408-0.034-0.612c-0.062-1.011-0.11-2.023-0.148-3.036
	c-0.012-0.329-0.024-0.658-0.033-0.987c-0.035-1.198-0.058-2.397-0.058-3.598C131.195,97.192,157.997,55.728,197.305,34.691z
	 M300.664,390.863H211.34c0.741-20.763-2.238-41.275-8.919-61.125l-2.164-6.43h28.891v18.14c0,14.212,11.562,25.773,25.773,25.773
	h2.154c14.211,0,25.773-11.562,25.773-25.773v-18.14h28.897l-2.164,6.43C302.902,349.588,299.923,370.101,300.664,390.863z
	 M300.587,410.863l-0.388,7.129c-0.165,3.028-2.669,5.4-5.702,5.4h-76.996c-3.033,0-5.538-2.372-5.702-5.4l-0.388-7.129H300.587z
	 M249.148,341.448v-18.14h13.701v18.14c0,3.184-2.59,5.773-5.773,5.773h-2.154C251.738,347.222,249.148,344.632,249.148,341.448z
	 M275.384,303.309h-2.536h-33.701h-2.533c-5.366-13.583-18.409-48.466-28.21-89.835c15.752,2.725,31.669,4.108,47.59,4.108
	c15.93,0,31.859-1.385,47.622-4.114C293.831,254.787,280.76,289.712,275.384,303.309z M147.448,206.423
	c-2.523-4.435-4.755-9.022-6.706-13.722c14.984,6.757,30.381,12.148,46.031,16.149c8.871,40.562,21.254,75.84,28.356,94.458H192.91
	l-45.101-96.186C147.698,206.885,147.577,206.651,147.448,206.423z M286.93,489.054c0,1.625-1.322,2.946-2.946,2.946h-55.969
	c-1.625,0-2.946-1.321-2.946-2.946v-45.377h61.861V489.054z M370.065,195.511c-0.658,1.478-1.363,2.979-2.098,4.466
	c-0.03,0.06-0.059,0.12-0.087,0.182l-48.366,103.15h-22.653c7.078-18.584,19.433-53.827,28.33-94.452
	c15.645-3.999,31.038-9.386,46.017-16.138L370.065,195.511z"/>
<path d="M177.868,102.16c0.25,0.6,0.55,1.18,0.91,1.72c0.37,0.55,0.79,1.06,1.25,1.52c0.46,0.471,0.97,0.881,1.52,1.25
	c0.54,0.36,1.12,0.67,1.72,0.92c0.61,0.25,1.24,0.44,1.87,0.57c0.65,0.13,1.31,0.19,1.96,0.19c0.65,0,1.31-0.061,1.95-0.19
	s1.27-0.32,1.87-0.57c0.61-0.25,1.19-0.56,1.73-0.92c0.55-0.369,1.06-0.779,1.52-1.25c0.46-0.46,0.88-0.97,1.24-1.52
	c0.36-0.54,0.67-1.12,0.92-1.72c0.25-0.61,0.44-1.24,0.57-1.87c0.13-0.65,0.2-1.311,0.2-1.96c0-0.65-0.07-1.311-0.2-1.95
	s-0.32-1.271-0.57-1.87c-0.25-0.61-0.56-1.19-0.92-1.729c-0.36-0.551-0.78-1.061-1.24-1.521s-0.97-0.88-1.52-1.24
	c-0.54-0.359-1.12-0.67-1.73-0.92c-0.6-0.25-1.23-0.439-1.87-0.569c-1.29-0.261-2.62-0.261-3.91,0c-0.63,0.13-1.26,0.319-1.87,0.569
	c-0.6,0.25-1.18,0.561-1.72,0.92c-0.55,0.36-1.06,0.78-1.52,1.24s-0.88,0.97-1.25,1.521c-0.36,0.539-0.67,1.119-0.91,1.729
	c-0.26,0.6-0.45,1.23-0.58,1.87s-0.19,1.3-0.19,1.95c0,0.649,0.06,1.31,0.19,1.96C177.419,100.92,177.618,101.55,177.868,102.16z"/>
<g>
	<path style="fill:#28B898;" d="M311.475,21.908c1.991,0.9,3.955,1.847,5.893,2.839C315.431,23.755,313.466,22.808,311.475,21.908z"
		/>
	<path style="fill:#28B898;" d="M194.629,24.748c1.938-0.993,3.902-1.939,5.893-2.839C198.532,22.808,196.566,23.755,194.629,24.748
		z"/>
</g>
<g>
</g>
<g>
</g>
<g>
</g>
<g>
</g>
<g>
</g>
<g>
</g>
<g>
</g>
<g>
</g>
<g>
</g>
<g>
</g>
<g>
</g>
<g>
</g>
<g>
</g>
<g>
</g>
<g>
</g>
</svg>
