<?xml version="1.0" encoding="iso-8859-1"?>
<!-- Generator: Adobe Illustrator 19.0.0, SVG Export Plug-In . SVG Version: 6.00 Build 0)  -->
<svg version="1.1" id="Capa_1" xmlns="http://www.w3.org/2000/svg" xmlns:xlink="http://www.w3.org/1999/xlink" x="0px" y="0px"
	 viewBox="0 0 512 512" style="enable-background:new 0 0 512 512;" xml:space="preserve">
<g>
	<polygon style="fill:#FFC766;" points="226.882,445.31 188.795,445.31 161.996,502 222.673,502 249.472,445.31 	"/>
	<path style="fill:#FFC766;" d="M437.58,502v-27.132c0-16.325-13.234-29.558-29.558-29.558h-18.163L363.06,502H437.58z"/>
	<polygon style="fill:#FFC766;" points="323.205,502 350.004,445.31 289.327,445.31 262.529,502 	"/>
	<path style="fill:#FFC766;" d="M103.979,445.31c-16.325,0-29.558,13.234-29.558,29.558V502h47.721l26.799-56.69H103.979z"/>
</g>
<g>
	<polygon style="fill:#ECEFF0;" points="148.94,445.31 122.142,502 161.996,502 188.795,445.31 	"/>
	<polygon style="fill:#ECEFF0;" points="222.673,502 262.529,502 289.327,445.31 285.118,445.31 249.472,445.31 	"/>
	<polygon style="fill:#ECEFF0;" points="363.06,502 389.859,445.31 350.004,445.31 323.205,502 	"/>
</g>
<path style="fill:#EC6575;" d="M226.882,422.935v22.375h22.59h35.646v-22.375c0-12.31-9.979-22.289-22.289-22.289h-13.657
	C236.862,400.645,226.882,410.625,226.882,422.935z"/>
<g>
	<rect x="241.23" y="102.97" style="fill:#ECEFF0;" width="29.547" height="42.876"/>
	<polygon style="fill:#ECEFF0;" points="270.774,400.645 270.774,204.12 241.227,204.12 241.227,400.645 249.172,400.645 
		262.829,400.645 	"/>
	<path style="fill:#ECEFF0;" d="M270.774,24.774C270.774,16.614,264.16,10,256,10s-14.774,6.614-14.774,14.774v19.927h29.547
		L270.774,24.774L270.774,24.774z"/>
</g>
<path style="fill:#28B898;" d="M362.688,204.12c7.32,0,14.294-3.115,19.179-8.566l13.385-14.935c2.874-3.207,2.874-8.063,0-11.27
	l-13.385-14.935c-4.885-5.451-11.859-8.566-19.179-8.566h-91.914h-29.547h-0.24c-6.129,0-11.098,4.969-11.098,11.098v36.075
	c0,6.129,4.969,11.098,11.098,11.098h0.24h29.547L362.688,204.12L362.688,204.12z"/>
<path style="fill:#5DADE0;" d="M274.373,102.972c6.129,0,11.098-4.969,11.098-11.098V55.799c0-6.129-4.969-11.098-11.098-11.098
	h-3.599h-29.547h-88.555c-7.32,0-14.294,3.115-19.179,8.566l-13.385,14.935c-2.874,3.207-2.874,8.063,0,11.27l13.385,14.935
	c4.885,5.451,11.859,8.566,19.179,8.566h88.555h29.547L274.373,102.972L274.373,102.972z"/>
<path d="M231.226,396.106c-8.643,5.8-14.344,15.66-14.344,26.829v12.375h-28.087h-39.854h-44.962
	c-21.813,0-39.558,17.746-39.558,39.559V492h-31.82c-5.523,0-10,4.478-10,10s4.477,10,10,10H74.42h47.721h39.855h60.677h39.855
	h60.677h39.854h74.521h41.818c5.522,0,10-4.478,10-10s-4.478-10-10-10H447.58v-17.132c0-21.813-17.746-39.559-39.559-39.559h-18.163
	h-39.854h-54.886v-12.375c0-11.168-5.701-21.029-14.345-26.829V214.12h81.914c10.147,0,19.852-4.334,26.627-11.892l13.383-14.935
	c6.291-7.018,6.291-17.602,0.001-24.618l-13.385-14.935c-6.773-7.558-16.479-11.893-26.626-11.893h-81.914v-23.875
	c8.513-2.718,14.697-10.697,14.697-20.099V55.799c0-9.401-6.185-17.381-14.697-20.098V24.773C280.774,11.113,269.66,0,256,0
	s-24.774,11.113-24.774,24.773v9.928h-78.555c-10.148,0-19.854,4.334-26.626,11.892l-13.384,14.934
	c-6.29,7.018-6.29,17.603,0,24.619l13.384,14.935c6.774,7.558,16.479,11.893,26.626,11.893h78.555v25.287
	c-6.73,3.53-11.338,10.575-11.338,18.687v36.076c0,8.111,4.608,15.157,11.338,18.687v79.878c0,5.522,4.477,10,10,10s10-4.478,10-10
	V214.12h9.547v176.525h-9.547v-19.059c0-5.522-4.477-10-10-10s-10,4.478-10,10L231.226,396.106L231.226,396.106z M251.226,24.773
	c0-2.632,2.142-4.773,4.774-4.773c2.632,0,4.773,2.142,4.773,4.773v9.928h-9.547L251.226,24.773L251.226,24.773z M152.672,92.973
	c-4.471,0-8.748-1.91-11.733-5.24l-12.453-13.896l12.453-13.896c2.984-3.329,7.261-5.239,11.733-5.239h78.555h20h9.547h13.599
	c0.605,0,1.099,0.492,1.099,1.098v36.075c0,0.605-0.493,1.099-1.099,1.099h-13.599h-9.547h-20h-78.555V92.973z M260.774,112.973
	v22.876h-9.547v-22.876H260.774z M251.226,194.12h-10.24c-0.605,0-1.098-0.492-1.098-1.098v-36.076c0-0.605,0.493-1.098,1.098-1.098
	h10.24h9.547h20h81.914c4.472,0,8.748,1.91,11.732,5.24l12.453,13.896l-12.452,13.896c-2.985,3.33-7.262,5.24-11.733,5.24h-81.914
	h-20L251.226,194.12L251.226,194.12z M84.421,492v-17.132c0-10.784,8.774-19.559,19.558-19.559h29.174L115.808,492H84.421z
	 M137.93,492l17.345-36.69h17.732L155.662,492H137.93z M177.784,492l17.344-36.69h31.753h6.802L216.34,492H177.784z M238.462,492
	l17.345-36.69h17.733L256.195,492H238.462z M396.193,455.31h11.829c10.784,0,19.559,8.774,19.559,19.559V492h-48.732L396.193,455.31
	z M356.339,455.31h17.732L356.727,492h-17.732L356.339,455.31z M316.871,492h-38.554l17.344-36.69h38.554L316.871,492z
	 M262.828,410.646c6.776,0,12.29,5.513,12.29,12.289v12.375h-25.646h-12.59v-12.375c0-6.776,5.513-12.289,12.29-12.289H262.828z"/>
<path d="M232.91,337.14c0.37,0.55,0.78,1.061,1.24,1.521c0.47,0.46,0.98,0.88,1.53,1.239c0.54,0.36,1.12,0.67,1.72,0.92
	s1.23,0.44,1.87,0.57c0.65,0.13,1.3,0.2,1.96,0.2c2.63,0,5.21-1.07,7.07-2.93c0.46-0.46,0.88-0.971,1.24-1.521
	c0.36-0.54,0.67-1.12,0.92-1.729c0.25-0.601,0.44-1.23,0.57-1.87c0.13-0.641,0.2-1.3,0.2-1.95s-0.07-1.31-0.2-1.96
	c-0.13-0.64-0.32-1.271-0.57-1.87s-0.56-1.18-0.92-1.729c-0.36-0.54-0.78-1.051-1.24-1.511c-0.46-0.47-0.97-0.88-1.52-1.25
	c-0.54-0.359-1.13-0.67-1.73-0.92s-1.23-0.439-1.87-0.569c-1.29-0.261-2.62-0.261-3.91,0c-0.64,0.13-1.27,0.319-1.87,0.569
	s-1.18,0.561-1.72,0.92c-0.55,0.37-1.06,0.78-1.53,1.25c-0.46,0.46-0.87,0.971-1.24,1.511c-0.36,0.55-0.67,1.13-0.92,1.729
	s-0.44,1.23-0.57,1.87c-0.13,0.65-0.19,1.31-0.19,1.96s0.06,1.31,0.19,1.95s0.32,1.27,0.57,1.87
	C232.24,336.02,232.55,336.6,232.91,337.14z"/>
<g>
</g>
<g>
</g>
<g>
</g>
<g>
</g>
<g>
</g>
<g>
</g>
<g>
</g>
<g>
</g>
<g>
</g>
<g>
</g>
<g>
</g>
<g>
</g>
<g>
</g>
<g>
</g>
<g>
</g>
</svg>
