<?xml version="1.0" encoding="iso-8859-1"?>
<!-- Generator: Adobe Illustrator 19.0.0, SVG Export Plug-In . SVG Version: 6.00 Build 0)  -->
<svg version="1.1" id="Capa_1" xmlns="http://www.w3.org/2000/svg" xmlns:xlink="http://www.w3.org/1999/xlink" x="0px" y="0px"
	 viewBox="0 0 512 512" style="enable-background:new 0 0 512 512;" xml:space="preserve">
<path style="fill:#FF3636;" d="M256,512c-68.113,0-132.327-26.702-180.812-75.188C26.702,388.327,0,324.113,0,256
	S26.702,123.673,75.188,75.188C123.673,26.702,187.887,0,256,0s132.327,26.702,180.812,75.188C485.298,123.673,512,187.887,512,256
	s-26.702,132.327-75.188,180.812C388.327,485.298,324.113,512,256,512z"/>
<path style="fill:#CC0000;" d="M436.812,436.812C485.298,388.327,512,324.113,512,256s-26.702-132.327-75.188-180.812
	C388.327,26.702,324.113,0,256,0v512C324.113,512,388.327,485.298,436.812,436.812z"/>
<path style="fill:#E7E7E7;" d="M391,391H121v-15c0-74.439,60.561-135,135-135s135,60.561,135,135V391z"/>
<path style="fill:#D3D3D8;" d="M391,391v-15c0-74.439-60.561-135-135-135v150H391z"/>
<rect x="345.989" y="133.569" transform="matrix(-0.3162 -0.9487 0.9487 -0.3162 303.4148 580.7053)" style="fill:#293939;" width="30" height="94.871"/>
<rect x="103.577" y="166" transform="matrix(-0.9487 -0.3162 0.3162 -0.9487 237.0446 400.4641)" style="fill:#384949;" width="94.871" height="30"/>
<g>
</g>
<g>
</g>
<g>
</g>
<g>
</g>
<g>
</g>
<g>
</g>
<g>
</g>
<g>
</g>
<g>
</g>
<g>
</g>
<g>
</g>
<g>
</g>
<g>
</g>
<g>
</g>
<g>
</g>
</svg>
