<?xml version="1.0" encoding="iso-8859-1"?>
<!-- Generator: Adobe Illustrator 19.0.0, SVG Export Plug-In . SVG Version: 6.00 Build 0)  -->
<svg version="1.1" id="Capa_1" xmlns="http://www.w3.org/2000/svg" xmlns:xlink="http://www.w3.org/1999/xlink" x="0px" y="0px"
	 viewBox="0 0 511.999 511.999" style="enable-background:new 0 0 511.999 511.999;" xml:space="preserve">
<path style="fill:#ECEFF0;" d="M231.353,197.999c0-43.879-35.571-79.449-79.449-79.449h-68.95H80.72
	c-9.984,0-18.077,8.093-18.077,18.077V290.07h168.71L231.353,197.999L231.353,197.999z"/>
<g>
	<path style="fill:#FFC766;" d="M256.471,292.411c7.536,2.17,14.458,5.785,20.45,10.524
		C270.929,298.195,264.008,294.583,256.471,292.411z"/>
	<path style="fill:#FFC766;" d="M291.907,320.43c0.335,0.593,0.661,1.193,0.977,1.799
		C292.568,321.622,292.242,321.023,291.907,320.43z"/>
	<path style="fill:#FFC766;" d="M293.052,322.558c1.337,2.605,2.488,5.323,3.435,8.133
		C295.539,327.88,294.389,325.164,293.052,322.558z"/>
	<path style="fill:#FFC766;" d="M297.339,333.441c0.808,2.847,1.409,5.781,1.788,8.785
		C298.748,339.221,298.147,336.289,297.339,333.441z"/>
	<path style="fill:#FFC766;" d="M286.792,312.818c1.821,2.307,3.475,4.752,4.945,7.317
		C290.267,317.57,288.614,315.126,286.792,312.818z"/>
	<path style="fill:#FFC766;" d="M299.617,349.763c0-0.8-0.029-1.592-0.06-2.385h-28.503c-8.059,0-14.591-6.533-14.591-14.591V292.41
		c-5.254-1.512-10.798-2.339-16.538-2.339h-8.572H62.642H45.408C25.853,290.07,10,305.923,10,325.478v101.958h22.323
		c0-21.088,17.095-38.183,38.183-38.183s38.183,17.095,38.183,38.183h89.721c0-21.088,17.095-38.183,38.183-38.183
		s38.183,17.095,38.183,38.183h24.842v-12.293v-38.751v-26.629H299.617z"/>
	<path style="fill:#FFC766;" d="M299.185,342.686c0.08,0.676,0.148,1.356,0.205,2.039
		C299.333,344.042,299.265,343.362,299.185,342.686z"/>
	<path style="fill:#FFC766;" d="M285.288,310.986c0.458,0.535,0.906,1.078,1.345,1.629
		C286.194,312.064,285.746,311.521,285.288,310.986z"/>
	<path style="fill:#FFC766;" d="M285.135,310.811c-1.955-2.268-4.076-4.385-6.347-6.335
		C281.059,306.424,283.18,308.544,285.135,310.811z"/>
	<path style="fill:#FFC766;" d="M299.43,345.255c0.053,0.704,0.099,1.41,0.127,2.121
		C299.529,346.665,299.483,345.959,299.43,345.255z"/>
	<path style="fill:#FFC766;" d="M296.616,331.074c0.212,0.643,0.412,1.291,0.603,1.943
		C297.029,332.364,296.828,331.717,296.616,331.074z"/>
	<path style="fill:#FFC766;" d="M276.997,302.996c0.581,0.461,1.153,0.933,1.716,1.415
		C278.15,303.928,277.578,303.457,276.997,302.996z"/>
</g>
<path style="fill:#BDC2C6;" d="M299.617,415.143h35.364c6.635,0,12.014-5.379,12.014-12.014v-26.738h-47.378L299.617,415.143
	L299.617,415.143z"/>
<path style="fill:#3D96D2;" d="M494.288,336.354h-12.066h-50.28h-34.667h-50.28v33.356h147.293c4.259,0,7.712-3.453,7.712-7.711
	v-17.933C502,339.807,498.547,336.354,494.288,336.354z"/>
<g>
	<path style="fill:#BC9C83;" d="M431.942,336.354h50.28v-97.567c0-13.004-10.542-23.546-23.546-23.546h-19.609h-7.125V336.354z"/>
	<rect x="347" y="215.24" style="fill:#BC9C83;" width="50.28" height="121.11"/>
</g>
<path style="fill:#A08571;" d="M431.942,215.24h7.125v-35.249c0-13.004-10.542-23.546-23.546-23.546h-68.525v58.795h50.28H431.942z"
	/>
<g>
	<circle style="fill:#3D96D2;" cx="236.59" cy="427.44" r="38.18"/>
	<circle style="fill:#3D96D2;" cx="70.5" cy="427.44" r="38.18"/>
	<path style="fill:#3D96D2;" d="M160.99,118.55V94.903c0-3.114-2.525-5.639-5.639-5.639h-10.485H99.077H88.592
		c-3.114,0-5.639,2.524-5.639,5.639v23.646h68.95L160.99,118.55L160.99,118.55z"/>
</g>
<g>
	<path style="fill:#EC6575;" d="M144.866,69.274c0-12.644-10.25-22.894-22.894-22.894s-22.895,10.25-22.895,22.894v19.991h45.789
		V69.274z"/>
	<path style="fill:#EC6575;" d="M271.054,347.378h28.503l0,0v-0.002c-0.028-0.711-0.074-1.417-0.127-2.121
		c-0.013-0.177-0.026-0.354-0.04-0.531c-0.057-0.683-0.125-1.363-0.205-2.039c-0.018-0.154-0.039-0.307-0.058-0.46
		c-0.379-3.004-0.98-5.938-1.788-8.785c-0.04-0.142-0.079-0.283-0.12-0.424c-0.19-0.652-0.391-1.3-0.603-1.943
		c-0.042-0.128-0.086-0.255-0.13-0.383c-0.947-2.811-2.098-5.528-3.435-8.133c-0.056-0.109-0.112-0.22-0.168-0.329
		c-0.316-0.605-0.641-1.206-0.977-1.799c-0.056-0.099-0.113-0.196-0.169-0.294c-1.47-2.564-3.124-5.01-4.945-7.317
		c-0.053-0.067-0.106-0.136-0.16-0.203c-0.439-0.551-0.887-1.094-1.345-1.629c-0.051-0.059-0.102-0.117-0.153-0.176
		c-1.955-2.267-4.076-4.386-6.347-6.335c-0.025-0.021-0.049-0.043-0.074-0.064c-0.563-0.482-1.135-0.954-1.716-1.415
		c-0.025-0.02-0.051-0.04-0.076-0.059c-5.992-4.739-12.914-8.354-20.45-10.524c-0.003-0.001-0.006-0.002-0.009-0.003l0,0v40.377
		C256.462,340.846,262.995,347.378,271.054,347.378z"/>
</g>
<rect x="397.27" y="215.24" style="fill:#FFC766;" width="34.667" height="121.11"/>
<path d="M494.288,326.354h-2.065v-87.567c0-18.498-15.049-33.547-33.547-33.547h-9.608v-25.248
	c0-18.498-15.049-33.547-33.547-33.547h-58.525V96.35c0-5.522-4.478-10-10-10s-10,4.478-10,10v60.095v58.795v121.114v30.037h-27.378
	v-16.629c0-0.903-0.034-1.798-0.068-2.692c-0.001-0.029,0.002-0.057,0.001-0.085c-0.001-0.031-0.004-0.061-0.005-0.091
	c-0.029-0.716-0.076-1.427-0.127-2.138c-0.024-0.333-0.048-0.667-0.076-1c-0.058-0.676-0.124-1.349-0.201-2.02
	c-0.042-0.371-0.093-0.739-0.141-1.107c-0.084-0.642-0.167-1.283-0.268-1.919c-0.1-0.626-0.218-1.247-0.334-1.868
	c-0.13-0.695-0.271-1.386-0.422-2.074c-0.146-0.666-0.296-1.331-0.46-1.99c-0.085-0.342-0.178-0.681-0.269-1.021
	c-0.208-0.78-0.428-1.555-0.662-2.325c-0.061-0.202-0.122-0.403-0.185-0.604c-6.363-20.299-21.778-36.823-42.191-44.386
	c-0.437-0.162-0.88-0.314-1.322-0.468c-0.484-0.168-0.968-0.335-1.457-0.494c-0.581-0.188-1.166-0.37-1.754-0.543
	c-0.15-0.044-0.296-0.095-0.447-0.138c-0.063-0.018-0.127-0.026-0.19-0.043c-5.639-1.611-11.565-2.526-17.686-2.65v-82.107
	c0-42.773-30.18-78.624-70.362-87.393V94.903c0-8.623-7.016-15.639-15.639-15.639h-0.485v-9.99
	c0-18.138-14.757-32.895-32.895-32.895S89.077,51.138,89.077,69.274v9.99h-0.485c-8.623,0-15.639,7.016-15.639,15.639v14.748
	c-11.714,3.378-20.311,14.189-20.311,26.976V280.07h-7.235C20.369,280.07,0,300.439,0,325.478v24.931v77.028c0,5.522,4.478,10,10,10
	h13.373c4.617,21.785,23.993,38.183,47.132,38.183s42.516-16.398,47.133-38.183h71.822c4.617,21.785,23.993,38.183,47.133,38.183
	s42.515-16.398,47.132-38.183h15.892c5.522,0,10-4.478,10-10v-2.294h25.364c2.529,0,4.958-0.434,7.221-1.223
	c1.423,0.779,3.056,1.223,4.792,1.223c5.522,0,10-4.478,10-10v-12.014v-23.418h137.293c9.767,0,17.712-7.945,17.712-17.712v-17.933
	C512,334.299,504.055,326.354,494.288,326.354z M458.676,225.24c7.47,0,13.547,6.077,13.547,13.547v87.567h-30.28V225.24H458.676z
	 M415.521,166.445c7.47,0,13.547,6.077,13.547,13.547v25.248h-31.792h-40.28v-38.795H415.521z M421.942,225.24v101.114h-14.667
	V225.24H421.942z M356.995,225.24h30.28v101.114h-30.28V225.24z M266.462,307.781c10.347,6.564,18.112,16.838,21.407,28.942
	c0.059,0.219,0.128,0.435,0.184,0.655h-17c-2.532,0-4.592-2.06-4.592-4.592v-25.005H266.462z M109.077,69.274
	c0-7.11,5.784-12.895,12.895-12.895c7.111,0,12.895,5.784,12.895,12.895v9.99h-25.789L109.077,69.274L109.077,69.274z
	 M144.866,99.265h6.124v9.285H92.953v-9.285h6.124C99.077,99.265,144.866,99.265,144.866,99.265z M72.643,136.628
	c0-4.454,3.623-8.077,8.077-8.077h2.233h68.95c38.294,0,69.449,31.155,69.449,69.449v82.07H72.643V136.628z M96.849,437.437
	c-4.044,10.617-14.325,18.183-26.344,18.183s-22.3-7.566-26.343-18.183c-1.185-3.11-1.839-6.479-1.839-10s0.655-6.89,1.839-10
	c4.044-10.617,14.324-18.183,26.343-18.183s22.3,7.566,26.344,18.183c1.185,3.11,1.839,6.479,1.839,10
	S98.034,434.327,96.849,437.437z M262.936,437.437c-4.044,10.617-14.324,18.183-26.343,18.183s-22.3-7.566-26.344-18.183
	c-1.185-3.11-1.839-6.479-1.839-10s0.655-6.89,1.839-10c4.044-10.617,14.325-18.183,26.344-18.183s22.3,7.566,26.343,18.183
	c1.185,3.11,1.839,6.479,1.839,10S264.121,434.327,262.936,437.437z M289.617,417.437h-5.892
	c-4.617-21.785-23.993-38.183-47.132-38.183s-42.516,16.398-47.133,38.183h-71.822c-4.617-21.785-23.993-38.183-47.133-38.183
	s-42.515,16.398-47.132,38.183H20v-57.028h140.99c5.522,0,10-4.478,10-10s-4.478-10-10-10H20v-14.931
	c0-14.01,11.397-25.407,25.407-25.407h17.235h168.71h8.572c2.217,0,4.396,0.161,6.537,0.443v32.273
	c0,13.56,11.032,24.592,24.592,24.592h18.563v19.013v38.751v2.294H289.617z M334.981,405.143h-25.364v-18.751h27.378v16.737
	C336.995,404.239,336.092,405.143,334.981,405.143z M492,359.711H356.995v-13.356h40.28h34.667h50.28H492V359.711z"/>
<path d="M177.828,157.805c-4.033-3.772-10.363-3.557-14.134,0.478l-66.667,71.33c-3.771,4.035-3.558,10.363,0.478,14.134
	c1.928,1.803,4.38,2.694,6.826,2.694c2.673,0,5.339-1.065,7.308-3.172l66.667-71.33
	C182.077,167.904,181.863,161.576,177.828,157.805z"/>
<path d="M178.521,208.652l-31.019,33.188c-3.771,4.035-3.558,10.363,0.478,14.134c1.929,1.803,4.38,2.694,6.826,2.694
	c2.673,0,5.339-1.065,7.308-3.172l31.019-33.188c3.771-4.035,3.558-10.363-0.478-14.134
	C188.62,204.402,182.292,204.619,178.521,208.652z"/>
<path d="M210.22,346.579c-0.25-0.601-0.56-1.181-0.92-1.721c-0.36-0.55-0.78-1.06-1.24-1.52s-0.97-0.88-1.52-1.25
	c-0.54-0.36-1.12-0.67-1.73-0.92c-0.6-0.25-1.229-0.44-1.87-0.561c-1.29-0.27-2.62-0.26-3.899,0c-0.641,0.12-1.271,0.311-1.88,0.561
	c-0.601,0.25-1.181,0.56-1.721,0.92c-0.55,0.37-1.06,0.79-1.52,1.25s-0.88,0.97-1.24,1.52c-0.37,0.54-0.67,1.12-0.92,1.721
	c-0.25,0.609-0.45,1.239-0.57,1.87c-0.13,0.649-0.199,1.31-0.199,1.96c0,0.649,0.069,1.31,0.199,1.949
	c0.12,0.641,0.32,1.271,0.57,1.87c0.25,0.61,0.55,1.19,0.92,1.73c0.36,0.55,0.78,1.06,1.24,1.52s0.97,0.88,1.52,1.24
	c0.54,0.36,1.12,0.67,1.721,0.92c0.609,0.25,1.239,0.44,1.88,0.57c0.64,0.13,1.3,0.2,1.95,0.2c0.649,0,1.31-0.07,1.949-0.2
	c0.641-0.13,1.271-0.32,1.87-0.57c0.61-0.25,1.19-0.56,1.73-0.92c0.55-0.36,1.06-0.78,1.52-1.24s0.88-0.97,1.24-1.52
	c0.36-0.54,0.67-1.12,0.92-1.73c0.25-0.6,0.44-1.229,0.57-1.87c0.13-0.64,0.2-1.3,0.2-1.949c0-0.65-0.07-1.311-0.2-1.96
	C210.67,347.819,210.47,347.189,210.22,346.579z"/>
<g>
</g>
<g>
</g>
<g>
</g>
<g>
</g>
<g>
</g>
<g>
</g>
<g>
</g>
<g>
</g>
<g>
</g>
<g>
</g>
<g>
</g>
<g>
</g>
<g>
</g>
<g>
</g>
<g>
</g>
</svg>
