<?xml version="1.0" encoding="iso-8859-1"?>
<!-- Generator: Adobe Illustrator 19.0.0, SVG Export Plug-In . SVG Version: 6.00 Build 0)  -->
<svg version="1.1" id="Capa_1" xmlns="http://www.w3.org/2000/svg" xmlns:xlink="http://www.w3.org/1999/xlink" x="0px" y="0px"
	 viewBox="0 0 512 512" style="enable-background:new 0 0 512 512;" xml:space="preserve">
<g>
	<path style="fill:#ECEFF0;" d="M392.368,417.576v-25.812c0-10.764-8.726-19.49-19.49-19.49h-26.865l-15.803,45.302H392.368z"/>
	<polygon style="fill:#ECEFF0;" points="284.908,417.576 300.711,372.274 238.552,372.274 222.75,417.576 	"/>
	<polygon style="fill:#ECEFF0;" points="177.448,417.576 193.25,372.274 131.092,372.274 115.289,417.576 	"/>
	<path style="fill:#ECEFF0;" d="M23.632,417.576h46.355l15.803-45.302H43.122c-10.764,0-19.49,8.726-19.49,19.49
		C23.632,391.764,23.632,417.576,23.632,417.576z"/>
</g>
<rect x="51.02" y="256.38" style="fill:#3D96D2;" width="313.95" height="42.14"/>
<g>
	<polygon style="fill:#BDC2C6;" points="115.289,417.576 131.092,372.274 85.79,372.274 69.987,417.576 	"/>
	<polygon style="fill:#BDC2C6;" points="222.75,417.576 238.552,372.274 193.25,372.274 177.448,417.576 	"/>
	<polygon style="fill:#BDC2C6;" points="330.21,417.576 346.013,372.274 300.711,372.274 284.908,417.576 	"/>
</g>
<g>
	<path style="fill:#FFC766;" d="M45.492,298.527c-9.019,0-16.33,7.311-16.33,16.33l0,0c0,9.019,7.311,16.33,16.33,16.33h5.531
		h313.953h5.531c9.019,0,16.33-7.311,16.33-16.33l0,0c0-9.019-7.311-16.33-16.33-16.33h-5.531H51.024H45.492z"/>
	<path style="fill:#FFC766;" d="M25.775,141.55h364.449c2.478,0,4.319-2.295,3.782-4.714l-5.447-24.51
		c-2.361-10.625-11.785-18.184-22.669-18.184H49.569c-11.069,0-20.6,7.813-22.771,18.667l-4.822,24.108
		C21.497,139.314,23.331,141.55,25.775,141.55z"/>
</g>
<circle style="fill:#EC6575;" cx="449" cy="212.86" r="44"/>
<path style="fill:#FFC766;" d="M432,407.359v10.5h33v-10.5c0-9.113-7.387-16.5-16.5-16.5S432,398.246,432,407.359z"/>
<path d="M10,427.576h13.632h46.355h45.302h62.159h45.302h62.159h45.302h62.158h37.307c0.747,0.178,1.523,0.283,2.325,0.283h33
	c0.802,0,1.577-0.104,2.325-0.283H502c5.522,0,10-4.477,10-10s-4.478-10-10-10h-27v-0.217c0-10.883-6.597-20.252-16-24.326V265.915
	c25.012-4.705,44-26.698,44-53.057c0-29.776-24.225-54-54-54s-54,24.224-54,54c0,26.358,18.988,48.352,44,53.057v116.711
	c-9.932,3.828-17,13.467-17,24.732v0.217h-19.632v-15.812c0-15.734-12.386-28.628-27.919-29.448V340.89
	c12.655-1.908,22.388-12.855,22.388-26.034c0-12.995-9.465-23.814-21.86-25.943v-32.528c0-1.115-0.19-2.184-0.527-3.186V152.086
	c0-0.181-0.018-0.357-0.027-0.536h15.802c4.231,0,8.176-1.893,10.823-5.193c2.646-3.3,3.638-7.562,2.72-11.69l-5.446-24.511
	c-3.404-15.317-16.74-26.015-32.431-26.015H49.569c-15.781,0-29.482,11.231-32.577,26.707l-4.821,24.107
	c-0.818,4.092,0.229,8.29,2.875,11.517c2.646,3.227,6.556,5.078,10.729,5.078h15.802c-0.01,0.178-0.027,0.355-0.027,0.536v101.115
	c-0.337,1.001-0.527,2.07-0.527,3.185v32.528c-12.396,2.129-21.861,12.948-21.861,25.943c0,13.178,9.733,24.125,22.388,26.034
	v21.427c-15.533,0.82-27.918,13.714-27.918,29.447v15.812H10c-5.523,0-10,4.477-10,10S4.477,427.576,10,427.576z M455,407.859h-13
	v-0.5c0-3.584,2.916-6.5,6.5-6.5s6.5,2.916,6.5,6.5V407.859z M415,212.859c0-18.748,15.252-34,34-34s34,15.252,34,34
	c0,18.748-15.252,34-34,34S415,231.606,415,212.859z M61.55,341.186h292.899v21.088h-8.437H300.71h-62.159H193.25h-62.158H85.79
	H61.55V341.186z M84.066,407.576l8.826-25.302h24.12l-8.826,25.302H84.066z M129.368,407.576l8.826-25.302h40.977l-8.826,25.302
	H129.368z M191.527,407.576l8.826-25.302h24.12l-8.826,25.302H191.527z M236.829,407.576l8.826-25.302h40.977l-8.826,25.302H236.829
	z M298.987,407.576l8.826-25.302h24.12l-8.826,25.302H298.987z M382.368,391.764v15.812H344.29l8.826-25.302h11.334h8.429
	C378.111,382.274,382.368,386.531,382.368,391.764z M33.248,131.55l3.356-16.78c1.232-6.158,6.685-10.628,12.965-10.628h316.322
	c6.245,0,11.553,4.257,12.907,10.353l3.79,17.056L33.248,131.55L33.248,131.55z M354.476,151.55
	c-0.01,0.178-0.027,0.355-0.027,0.536v94.3H61.55v-94.3c0-0.181-0.018-0.357-0.027-0.536H354.476z M41.023,319.335
	c-1.149-1.146-1.861-2.73-1.861-4.478s0.712-3.331,1.861-4.478c0.166-0.166,0.344-0.319,0.527-0.466
	c1.083-0.865,2.452-1.386,3.942-1.386H61.55h191.91c5.522,0,10-4.477,10-10s-4.478-10-10-10H61.55v-22.141h292.899v22.141H333.46
	c-5.522,0-10,4.477-10,10s4.478,10,10,10h20.989h16.059c1.49,0,2.859,0.521,3.941,1.386c0.184,0.147,0.361,0.3,0.527,0.466
	c1.149,1.147,1.86,2.731,1.86,4.478s-0.712,3.331-1.86,4.478c-0.166,0.166-0.344,0.32-0.527,0.466
	c-1.083,0.865-2.451,1.386-3.941,1.386h-15.531h-0.527H61.55h-0.527h-15.53c-1.49,0-2.86-0.521-3.942-1.386
	C41.367,319.654,41.189,319.5,41.023,319.335z M33.632,391.764c0-5.233,4.257-9.49,9.49-9.49h8.428h20.161l-8.826,25.302H33.632
	V391.764z"/>
<path d="M284.229,302.348c0.25,0.61,0.551,1.19,0.92,1.73c0.36,0.55,0.78,1.06,1.24,1.52c1.86,1.86,4.44,2.93,7.07,2.93
	c0.649,0,1.31-0.07,1.95-0.2s1.27-0.32,1.87-0.57c0.609-0.25,1.189-0.56,1.729-0.92c0.55-0.36,1.06-0.78,1.521-1.24
	c0.46-0.46,0.88-0.97,1.239-1.52c0.36-0.54,0.67-1.12,0.92-1.73c0.25-0.6,0.45-1.23,0.57-1.87c0.13-0.64,0.2-1.3,0.2-1.95
	s-0.07-1.31-0.2-1.96c-0.12-0.63-0.32-1.26-0.57-1.87c-0.25-0.6-0.56-1.18-0.92-1.72c-0.359-0.55-0.779-1.06-1.239-1.52
	c-0.461-0.46-0.971-0.88-1.521-1.25c-0.54-0.36-1.12-0.67-1.729-0.92c-0.601-0.25-1.23-0.44-1.87-0.57
	c-3.24-0.65-6.7,0.42-9.021,2.74c-0.46,0.46-0.88,0.97-1.24,1.52c-0.369,0.54-0.67,1.12-0.92,1.72c-0.25,0.61-0.449,1.24-0.569,1.87
	c-0.13,0.65-0.2,1.31-0.2,1.96s0.07,1.31,0.2,1.95C283.78,301.118,283.979,301.748,284.229,302.348z"/>
<g>
</g>
<g>
</g>
<g>
</g>
<g>
</g>
<g>
</g>
<g>
</g>
<g>
</g>
<g>
</g>
<g>
</g>
<g>
</g>
<g>
</g>
<g>
</g>
<g>
</g>
<g>
</g>
<g>
</g>
</svg>
