<?xml version="1.0" encoding="iso-8859-1"?>
<!-- Generator: Adobe Illustrator 19.0.0, SVG Export Plug-In . SVG Version: 6.00 Build 0)  -->
<svg version="1.1" id="Capa_1" xmlns="http://www.w3.org/2000/svg" xmlns:xlink="http://www.w3.org/1999/xlink" x="0px" y="0px"
	 viewBox="0 0 512 512" style="enable-background:new 0 0 512 512;" xml:space="preserve">
<polygon style="fill:#57555C;" points="323.3,452 313.099,512 227.901,512 217.7,452 270.5,422 "/>
<polygon style="fill:#3C3A41;" points="323.3,452 313.099,512 270.5,512 270.5,422 "/>
<polygon style="fill:#BF6015;" points="348.201,271 323.3,452 217.7,452 192.799,271 "/>
<polygon style="fill:#994C10;" points="348.201,271 323.3,452 270.5,452 270.5,271 "/>
<path style="fill:#FEDB41;" d="M320.9,68.399L285.5,50.7V105c0,8.399-6.599,15-15,15s-15-6.601-15-15c0-57.9-47.1-105-105-105h-39.3
	l29.399,26.1c0,0.3,24.901,23.101,24.901,48.9c0,8.699-2.999,17.999-8.699,27.9C136.7,137.699,137,180.4,157.099,215.201
	C177.2,250.3,213.201,271,253.4,271h9c2.701,0,5.4,0,8.101-0.3c58.5-4.2,105-54.101,105-113.8
	C375.5,119.099,354.5,85.199,320.9,68.399z"/>
<path style="fill:#FCBF29;" d="M375.5,156.899c0,59.7-46.5,109.6-105,113.8V120c8.401,0,15-6.601,15-15V50.7l35.4,17.699
	C354.5,85.199,375.5,119.099,375.5,156.899z"/>
<g>
	<path style="fill:#FEDB41;" d="M451.5,0c-24.901,0-45,20.099-45,45c0,24.899,20.099,45,45,45s45-20.101,45-45
		C496.5,20.099,476.401,0,451.5,0z M451.5,60c-8.401,0-15-6.601-15-15c0-8.401,6.599-15,15-15s15,6.599,15,15
		C466.5,53.399,459.901,60,451.5,60z"/>
	<polygon style="fill:#FEDB41;" points="496.5,361 496.5,391 466.5,391 466.5,421 436.5,421 436.5,391 406.5,391 406.5,361 
		436.5,361 436.5,331 466.5,331 466.5,361 	"/>
</g>
<g>
	<polygon style="fill:#FCBF29;" points="496.5,361 496.5,391 466.5,391 466.5,421 451.5,421 451.5,331 466.5,331 466.5,361 	"/>
	<path style="fill:#FCBF29;" d="M496.5,45c0,24.899-20.099,45-45,45V60c8.401,0,15-6.601,15-15c0-8.401-6.599-15-15-15V0
		C476.401,0,496.5,20.099,496.5,45z"/>
</g>
<path style="fill:#FEDB41;" d="M60.5,301c-24.901,0-45,20.099-45,45c0,24.899,20.099,45,45,45s45-20.101,45-45
	C105.5,321.099,85.401,301,60.5,301z M60.5,361c-8.401,0-15-6.601-15-15c0-8.401,6.599-15,15-15s15,6.599,15,15
	C75.5,354.399,68.901,361,60.5,361z"/>
<path style="fill:#FCBF29;" d="M105.5,346c0,24.899-20.099,45-45,45v-30c8.401,0,15-6.601,15-15c0-8.401-6.599-15-15-15v-30
	C85.401,301,105.5,321.099,105.5,346z"/>
<polygon style="fill:#FEDB41;" points="105.5,30 105.5,60 75.5,60 75.5,90 45.5,90 45.5,60 15.5,60 15.5,30 45.5,30 45.5,0 75.5,0 
	75.5,30 "/>
<polygon style="fill:#FCBF29;" points="105.5,30 105.5,60 75.5,60 75.5,90 60.5,90 60.5,0 75.5,0 75.5,30 "/>
<path style="fill:#FD4E26;" d="M436.5,241c0,16.5-6.599,31.5-17.701,42.299C408,294.399,392,301,375.5,301h-210
	c-32.999,0-60-27.001-60-60H436.5z"/>
<path style="fill:#E61E14;" d="M436.5,241c0,16.5-6.599,31.5-17.701,42.299C408,294.399,392,301,375.5,301h-105v-60H436.5z"/>
<g>
</g>
<g>
</g>
<g>
</g>
<g>
</g>
<g>
</g>
<g>
</g>
<g>
</g>
<g>
</g>
<g>
</g>
<g>
</g>
<g>
</g>
<g>
</g>
<g>
</g>
<g>
</g>
<g>
</g>
</svg>
