<?xml version="1.0" encoding="iso-8859-1"?>
<!-- Generator: Adobe Illustrator 19.0.0, SVG Export Plug-In . SVG Version: 6.00 Build 0)  -->
<svg version="1.1" id="Capa_1" xmlns="http://www.w3.org/2000/svg" xmlns:xlink="http://www.w3.org/1999/xlink" x="0px" y="0px"
	 viewBox="0 0 512 512" style="enable-background:new 0 0 512 512;" xml:space="preserve">
<path style="fill:#3D96D2;" d="M480.092,303.624h-17.325H341.383h-17.325c-12.1,0-21.908,9.809-21.908,21.908v23.093H502v-23.093
	C502,313.433,492.191,303.624,480.092,303.624z"/>
<path style="fill:#EC6575;" d="M462.766,204.445c0-33.519-27.173-60.692-60.692-60.692l0,0c-33.519,0-60.692,27.172-60.692,60.692
	v99.179h121.384L462.766,204.445L462.766,204.445z M402.075,255.343c-15.37,0-27.829-12.46-27.829-27.829
	s12.459-27.829,27.829-27.829s27.829,12.46,27.829,27.829S417.444,255.343,402.075,255.343z"/>
<circle style="fill:#3D96D2;" cx="402.07" cy="227.51" r="27.829"/>
<path style="fill:#FFC766;" d="M189.808,115.758c-2.205-6.915-8.629-11.609-15.887-11.609h-19.225
	c-7.258,0-13.682,4.695-15.887,11.609L46.384,405.639h235.849L189.808,115.758z M100.176,236.926l119.67-26.955l22.334,70.048
	L74.997,315.898L100.176,236.926z"/>
<path style="fill:#EC6575;" d="M318.617,423.125c0-9.657-7.829-17.485-17.486-17.485h-18.899H46.384H27.485
	c-9.657,0-17.485,7.829-17.485,17.485v18.287h308.617V423.125z"/>
<polygon style="fill:#ECEFF0;" points="219.846,209.971 100.176,236.926 74.997,315.898 242.18,280.019 "/>
<path d="M480.092,293.624h-7.325v-75.007c0-5.522-4.478-10-10-10s-10,4.478-10,10v75.007H351.383v-89.179
	c0-27.952,22.74-50.692,50.692-50.692c5.766,0,11.418,0.958,16.798,2.847c1.473,0.518,2.935,1.109,4.348,1.759
	c5.013,2.307,10.954,0.112,13.264-4.906c2.308-5.018,0.111-10.956-4.906-13.264c-1.976-0.908-4.02-1.735-6.078-2.459
	c-7.517-2.639-15.397-3.977-23.426-3.977c-38.979,0-70.691,31.713-70.691,70.692v89.179h-7.325
	c-17.595,0-31.908,14.314-31.908,31.908v23.093c0,5.522,4.478,10,10,10H502c5.522,0,10-4.478,10-10v-23.093
	C512,307.938,497.686,293.624,480.092,293.624z M492,338.625H312.149v-13.093c0-6.566,5.342-11.908,11.908-11.908h17.325h121.384
	h17.325c6.566,0,11.908,5.342,11.908,11.908v13.093H492z"/>
<path d="M402.074,189.685c-20.859,0-37.829,16.97-37.829,37.829s16.97,37.829,37.829,37.829s37.83-16.97,37.83-37.829
	S422.934,189.685,402.074,189.685z M402.074,245.343c-9.831,0-17.829-7.998-17.829-17.829s7.998-17.829,17.829-17.829
	s17.83,7.998,17.83,17.829S411.905,245.343,402.074,245.343z"/>
<path d="M10,451.411h308.617c5.522,0,10-4.478,10-10v-18.286c0-15.155-12.33-27.485-27.485-27.485H289.54l-37.83-118.653
	c-0.001-0.002-0.001-0.004-0.002-0.006l-18.693-58.627L199.336,112.72c-3.542-11.108-13.756-18.571-25.415-18.571h-19.225
	c-11.659,0-21.873,7.463-25.415,18.571L77.55,274.972L65.47,312.86c-0.001,0.002-0.001,0.004-0.001,0.006L39.077,395.64H27.485
	C12.33,395.64,0,407.97,0,423.125v18.286C0,446.934,4.478,451.411,10,451.411z M148.336,118.796c0.887-2.78,3.442-4.647,6.36-4.647
	h19.225c2.918,0,5.474,1.867,6.36,4.647l26.723,83.817l-91.999,20.722L148.336,118.796z M82.764,324.458l40.383-8.666
	c5.399-1.159,8.838-6.476,7.679-11.876c-1.159-5.399-6.479-8.836-11.876-7.679l-29.185,6.264l8.147-25.554l10.052-31.525
	l105.139-23.682l16.201,50.813l-32.324,6.938c-5.399,1.159-8.838,6.476-7.679,11.876c1.158,5.399,6.478,8.831,11.876,7.679
	l34.231-7.346l33.139,103.94H60.069L82.764,324.458z M20,423.125c0-4.127,3.357-7.485,7.485-7.485h18.899h235.848h18.899
	c4.128,0,7.485,3.358,7.485,7.485v8.286H20V423.125z"/>
<path d="M392.074,70.589v32.566c0,5.522,4.478,10,10,10s10-4.478,10-10V70.589c0-5.522-4.478-10-10-10
	S392.074,65.066,392.074,70.589z"/>
<path d="M305.793,91.92c-4.243,3.536-4.816,9.842-1.281,14.084l17.229,20.676c1.979,2.374,4.822,3.599,7.688,3.599
	c2.258,0,4.527-0.76,6.396-2.317c4.243-3.536,4.816-9.842,1.281-14.084l-17.229-20.676C316.34,88.957,310.033,88.386,305.793,91.92z
	"/>
<path d="M468.324,127.961c1.869,1.558,4.139,2.317,6.396,2.317c2.864,0,5.71-1.226,7.688-3.599l17.229-20.676
	c3.535-4.242,2.962-10.548-1.281-14.084c-4.239-3.533-10.548-2.962-14.084,1.281l-17.229,20.676
	C463.508,118.119,464.081,124.425,468.324,127.961z"/>
<path d="M170.28,293.609c-0.25-0.609-0.561-1.189-0.921-1.729c-0.369-0.55-0.79-1.061-1.25-1.521s-0.97-0.88-1.52-1.239
	c-0.54-0.36-1.12-0.67-1.72-0.92c-0.601-0.25-1.23-0.44-1.87-0.57c-1.29-0.26-2.62-0.26-3.91,0c-0.64,0.13-1.271,0.32-1.87,0.57
	c-0.61,0.25-1.189,0.56-1.729,0.92c-0.551,0.359-1.061,0.779-1.521,1.239s-0.88,0.971-1.24,1.521c-0.359,0.54-0.67,1.12-0.92,1.729
	c-0.25,0.601-0.439,1.23-0.569,1.87c-0.131,0.641-0.2,1.301-0.2,1.95c0,0.65,0.069,1.311,0.2,1.95c0.13,0.64,0.319,1.27,0.569,1.87
	c0.25,0.609,0.561,1.189,0.92,1.729c0.36,0.551,0.78,1.061,1.24,1.521s0.97,0.88,1.521,1.25c0.54,0.359,1.119,0.67,1.729,0.92
	c0.6,0.24,1.23,0.439,1.87,0.56c0.64,0.13,1.3,0.2,1.95,0.2c0.66,0,1.31-0.07,1.96-0.2c0.64-0.12,1.27-0.319,1.87-0.56
	c0.6-0.25,1.18-0.561,1.72-0.92c0.55-0.37,1.06-0.79,1.52-1.25s0.881-0.97,1.25-1.521c0.36-0.54,0.671-1.12,0.921-1.729
	c0.25-0.601,0.439-1.23,0.569-1.87s0.19-1.3,0.19-1.95c0-0.649-0.061-1.31-0.19-1.95C170.72,294.84,170.53,294.21,170.28,293.609z"
	/>
<path d="M463.28,169.14c-0.36-0.55-0.78-1.06-1.24-1.52c-2.33-2.32-5.78-3.391-9.03-2.74c-0.64,0.13-1.26,0.32-1.87,0.57
	c-0.6,0.25-1.18,0.56-1.72,0.92c-0.55,0.37-1.061,0.79-1.521,1.25s-0.88,0.97-1.25,1.52c-0.359,0.54-0.67,1.12-0.92,1.72
	c-0.25,0.61-0.439,1.24-0.569,1.87c-0.13,0.65-0.19,1.311-0.19,1.96c0,0.65,0.061,1.311,0.19,1.95
	c0.13,0.641,0.319,1.271,0.569,1.87c0.25,0.61,0.561,1.19,0.92,1.73c0.37,0.55,0.79,1.06,1.25,1.52s0.971,0.88,1.521,1.24
	c0.54,0.359,1.12,0.67,1.72,0.92c0.61,0.25,1.23,0.439,1.87,0.57c0.65,0.13,1.3,0.199,1.96,0.199c2.63,0,5.21-1.069,7.07-2.93
	c0.46-0.46,0.88-0.97,1.24-1.52c0.359-0.54,0.67-1.12,0.92-1.73c0.25-0.6,0.439-1.229,0.569-1.87c0.13-0.64,0.2-1.3,0.2-1.95
	c0-0.649-0.07-1.31-0.2-1.96c-0.13-0.63-0.319-1.26-0.569-1.87C463.95,170.26,463.64,169.68,463.28,169.14z"/>
<g>
</g>
<g>
</g>
<g>
</g>
<g>
</g>
<g>
</g>
<g>
</g>
<g>
</g>
<g>
</g>
<g>
</g>
<g>
</g>
<g>
</g>
<g>
</g>
<g>
</g>
<g>
</g>
<g>
</g>
</svg>
